<svg width="1420" height="840" viewBox="0 0 1420 840" fill="none"
    xmlns="http://www.w3.org/2000/svg">
    <path
        d="M57.5674 496.785C89.3611 496.785 115.135 522.569 115.135 554.375C115.135 586.181 89.3611 611.965 57.5674 611.965C25.7738 611.965 0 586.181 0 554.375C0 522.569 25.7738 496.785 57.5674 496.785Z"
        fill="white" />
    <path
        d="M57.5674 496.785C89.3611 496.785 115.135 522.569 115.135 554.375C115.135 586.181 89.3611 611.965 57.5674 611.965C25.7738 611.965 0 586.181 0 554.375C0 522.569 25.7738 496.785 57.5674 496.785Z"
        stroke="white" />
    <path
        d="M1362.43 228.031C1394.22 228.031 1420 253.815 1420 285.621C1420 317.427 1394.22 343.211 1362.43 343.211C1330.64 343.211 1304.86 317.427 1304.86 285.621C1304.86 253.815 1330.64 228.031 1362.43 228.031Z"
        fill="white" />
    <path
        d="M1362.43 228.031C1394.22 228.031 1420 253.815 1420 285.621C1420 317.427 1394.22 343.211 1362.43 343.211C1330.64 343.211 1304.86 317.427 1304.86 285.621C1304.86 253.815 1330.64 228.031 1362.43 228.031Z"
        stroke="white" />
    <path
        d="M904.222 0C919.49 0.000144001 934.133 6.068 944.929 16.8682L1169.85 241.881C1180.93 252.96 1187.42 267.812 1188.02 283.469C1188.62 299.125 1183.29 314.433 1173.1 326.329L1020.53 504.396C962.056 572.64 876.597 611.96 786.75 611.96H426.816L556.487 741.681C567.283 752.481 573.349 767.129 573.35 782.402C573.35 797.676 567.284 812.325 556.488 823.126L556.483 823.132C551.138 828.48 544.792 832.721 537.808 835.615C530.823 838.509 523.337 840 515.777 840C508.218 840 500.732 838.509 493.748 835.615C486.764 832.721 480.418 828.48 475.072 823.132L250.146 598.105C239.071 587.026 232.584 572.173 231.983 556.517C231.382 540.86 236.711 525.552 246.903 513.655L399.472 335.588C457.944 267.344 543.387 228.025 633.234 228.025H993.18L863.51 98.3154C858.164 92.968 853.923 86.6188 851.03 79.6318C848.137 72.645 846.648 65.1563 846.647 57.5938C846.647 50.0311 848.137 42.5416 851.03 35.5547C853.923 28.5679 858.169 22.2155 863.515 16.8682C874.311 6.06823 888.954 -3.04648e-05 904.222 0ZM633.234 343.207C576.928 343.207 523.534 367.777 486.89 410.545L413.001 496.778H786.75C843.057 496.778 896.466 472.207 933.11 429.439L1007 343.207H633.234Z"
        fill="white" />
    <path
        d="M904.222 0C919.49 0.000144001 934.133 6.068 944.929 16.8682L1169.85 241.881C1180.93 252.96 1187.42 267.812 1188.02 283.469C1188.62 299.125 1183.29 314.433 1173.1 326.329L1020.53 504.396C962.056 572.64 876.597 611.96 786.75 611.96H426.816L556.487 741.681C567.283 752.481 573.349 767.129 573.35 782.402C573.35 797.676 567.284 812.325 556.488 823.126L556.483 823.132C551.138 828.48 544.792 832.721 537.808 835.615C530.823 838.509 523.337 840 515.777 840C508.218 840 500.732 838.509 493.748 835.615C486.764 832.721 480.418 828.48 475.072 823.132L250.146 598.105C239.071 587.026 232.584 572.173 231.983 556.517C231.382 540.86 236.711 525.552 246.903 513.655L399.472 335.588C457.944 267.344 543.387 228.025 633.234 228.025H993.18L863.51 98.3154C858.164 92.968 853.923 86.6188 851.03 79.6318C848.137 72.645 846.648 65.1563 846.647 57.5938C846.647 50.0311 848.137 42.5416 851.03 35.5547C853.923 28.5679 858.169 22.2155 863.515 16.8682C874.311 6.06823 888.954 -3.04648e-05 904.222 0ZM633.234 343.207C576.928 343.207 523.534 367.777 486.89 410.545L413.001 496.778H786.75C843.057 496.778 896.466 472.207 933.11 429.439L1007 343.207H633.234Z"
        stroke="white" />
</svg>
