<svg width="2000" height="2000" viewBox="0 0 2000 2000" fill="none"
    xmlns="http://www.w3.org/2000/svg">
    <g clip-path="url(#clip0_2689_1875)">
        <rect width="2000" height="2000" fill="#00AB9B" />
        <path
            d="M6959 987.248L4684.47 987.245C4404.89 987.245 4129.14 773.541 3879.07 363.057L3829.69 282.003C3712.32 89.3417 3582.49 -7.26369 3451.29 0.425592C3320.09 8.11488 3191.4 119.871 3076.19 326.162C2829.15 768.036 2570.63 1136.97 2303.69 1428.61L2300.44 1432.17C2034.24 1723.48 1752.99 1837.15 1473.22 1766.5L1443.61 1759.01C1162.81 1688.1 887.247 1470.75 627.28 1115.15L602.261 1080.92C343.198 726.55 65.3254 544.101 -215.326 544.101H-1275"
            stroke="white" stroke-opacity="0.2" stroke-width="28" />
        <path
            d="M6959 765.51H5291.9C5010.05 765.51 4729.79 627.16 4460.41 355.046L4395.71 289.687C4268.04 160.722 4133.45 122.648 4000.94 178.008C3868.43 233.368 3741.05 380.885 3627.28 610.717L3474.05 920.297C3361.14 1148.39 3234 1289.76 3102.11 1333.83C2970.22 1377.91 2837.01 1323.54 2712.42 1174.81C2464.94 879.377 2217.49 583.965 1970.01 288.529C1851.88 162.458 1726.94 120.355 1603.47 165.017C1480 209.679 1360.85 340.084 1253.92 547.569C1011.55 979.879 735.898 1169.42 461.062 1092.75C191.168 1020.62 -79.522 985.37 -350.308 987.08H-1275"
            stroke="white" stroke-opacity="0.2" stroke-width="28" />
        <path
            d="M-1275 765.657H-552.783C-270.266 765.657 11.3373 660.369 286.619 451.815L335.498 414.784C606.41 209.54 889.319 253.668 1153.08 542.309L1358.8 767.433C1622.22 1055.69 1905.21 1091.37 2174.58 870.287C2443.52 651.889 2720.12 552.2 2997.08 573.855C3221.62 604.498 3445.09 692.424 3665.47 836.837C3890.7 962.891 4117.14 1064.46 4344.41 1141.36C4547.22 1200.77 4750.88 1223.28 4954.44 1208.8L6959 1208.8"
            stroke="white" stroke-opacity="0.2" stroke-width="28" />
        <path
            d="M6959 1208.87H4616.98C4334.24 1208.87 4201.43 1241.45 3890.15 1354.79C3547.82 1479.43 3326.95 1423.51 3131.66 1061.78L2889.8 691.238C2768.6 505.558 2636.83 405.977 2503.1 399.01C2369.37 392.043 2236.7 477.847 2113.77 650.808L1950.43 880.63C1695.56 1239.22 1414.18 1343.6 1141.37 1180.76L493.126 793.826C214.832 627.713 -67.45 544.152 -350.306 544.152H-1275"
            stroke="white" stroke-opacity="0.2" stroke-width="28" />
        <path
            d="M6959 765.581H4886.95C4606.1 765.58 4327.83 589.648 4067.07 247.22C3844.25 8.98911 3602.36 52.5492 3388.81 369.364C3213.1 622.378 3046.81 940.746 2893.21 1318.22L2790.79 1542.37C2681.31 1781.99 2556.04 1932.72 2425.32 1982.12C2294.6 2031.52 2162.18 1978.19 2038.97 1826.51C1862.65 1577.45 1694.35 1271.14 1536.59 912.131C1442.56 698.141 1095.81 639.785 934.637 698.141L564.874 833.02C283.394 935.698 0.397065 987.153 -282.816 987.153H-1275"
            stroke="white" stroke-opacity="0.2" stroke-width="28" />
    </g>
    <defs>
        <clipPath id="clip0_2689_1875">
            <rect width="2000" height="2000" fill="white" />
        </clipPath>
    </defs>
</svg>
